<svg width="100" height="100" viewBox="0 0 100 100" fill="none" xmlns="http://www.w3.org/2000/svg">
<mask id="mask0_2754_1749" style="mask-type:luminance" maskUnits="userSpaceOnUse" x="0" y="0" width="100" height="100">
<path d="M100 0H0V100H100V0Z" fill="white"/>
</mask>
<g mask="url(#mask0_2754_1749)">
<path fill-rule="evenodd" clip-rule="evenodd" d="M34.3754 62.2135C34.3754 61.7048 34.8126 61.291 35.352 61.291H64.649C65.1884 61.291 65.6256 61.7048 65.6256 62.2135C65.6256 62.7235 65.1884 63.136 64.649 63.136H35.352C34.8126 63.136 34.3754 62.7235 34.3754 62.2135ZM36.3286 65.9035C36.3286 65.3935 36.7657 64.981 37.3051 64.981H52.9302C53.4696 64.981 53.9067 65.3935 53.9067 65.9035C53.9067 66.4122 53.4696 66.8247 52.9302 66.8247H37.3051C36.7657 66.8247 36.3286 66.4122 36.3286 65.9035ZM35.352 68.6698C34.8126 68.6698 34.3754 69.0835 34.3754 69.5923C34.3754 70.1023 34.8126 70.5148 35.352 70.5148H62.6959C63.2352 70.5148 63.6725 70.1023 63.6725 69.5923C63.6725 69.0835 63.2352 68.6698 62.6959 68.6698H35.352ZM36.3286 73.281C36.3286 72.7723 36.7657 72.3598 37.3051 72.3598H49.024C49.5632 72.3598 50.0005 72.7723 50.0005 73.281C50.0005 73.791 49.5632 74.2035 49.024 74.2035H37.3051C36.7657 74.2035 36.3286 73.791 36.3286 73.281ZM37.3051 76.0485C36.7657 76.0485 36.3286 76.461 36.3286 76.971C36.3286 77.4798 36.7657 77.8935 37.3051 77.8935H49.024C49.5632 77.8935 50.0005 77.4798 50.0005 76.971C50.0005 76.461 49.5632 76.0485 49.024 76.0485H37.3051Z" fill="#E4E8F4"/>
<path d="M19.3412 69.5217C19.0145 69.5217 18.7504 69.7704 18.7504 70.0792C18.7504 70.3879 19.0145 70.6367 19.3412 70.6367C20.0284 70.6367 20.5702 70.8467 20.9974 71.2767C22.2447 72.5354 22.0769 75.1754 22.074 75.2404V82.3554C22.074 84.1479 22.601 85.5304 23.6391 86.4604C24.8852 87.5792 26.458 87.6579 26.8764 87.6579C26.9342 87.6579 26.9697 87.6554 26.9791 87.6554C27.3054 87.6404 27.5559 87.3779 27.5387 87.0692C27.5216 86.7604 27.2386 86.5229 26.9177 86.5404C26.9024 86.5479 25.5085 86.5992 24.4527 85.6517C23.6574 84.9392 23.2556 83.8291 23.2556 82.3554L23.2545 75.2779C23.2639 75.1504 23.4601 72.1292 21.8624 70.5167C21.6976 70.3504 21.5191 70.2029 21.3301 70.0792C21.5191 69.9542 21.6976 69.8092 21.8624 69.6417C23.4601 68.0279 23.2639 65.0079 23.2556 64.9179V57.8029C23.2556 56.3354 23.6551 55.2292 24.4432 54.5154C25.4872 53.5704 26.9 53.6154 26.9206 53.6167C27.2462 53.6367 27.5216 53.3967 27.5387 53.0892C27.5546 52.7804 27.3047 52.5192 26.9791 52.5029C26.8976 52.5029 25.0589 52.4242 23.6402 53.6979C22.601 54.6304 22.0751 56.0117 22.0751 57.8029L22.0764 64.9554C22.1295 65.6904 22.0385 67.8292 21.0004 68.8792C20.5714 69.3117 20.0296 69.5217 19.3412 69.5217Z" fill="#3980FF"/>
<path d="M80.6596 69.5217C80.9864 69.5217 81.2504 69.7704 81.2504 70.0792C81.2504 70.3879 80.9864 70.6367 80.6596 70.6367C79.9724 70.6367 79.4306 70.8467 79.0034 71.2767C77.7561 72.5354 77.924 75.1754 77.9269 75.2404V82.3554C77.9269 84.1479 77.3999 85.5304 76.3618 86.4604C75.1156 87.5792 73.5428 87.6579 73.1245 87.6579C73.0666 87.6579 73.0311 87.6554 73.0216 87.6554C72.6955 87.6404 72.445 87.3779 72.4621 87.0692C72.4793 86.7604 72.7623 86.5229 73.0831 86.5404C73.0985 86.5479 74.4923 86.5992 75.5481 85.6517C76.3434 84.9392 76.7453 83.8291 76.7453 82.3554L76.7464 75.2779C76.7369 75.1504 76.5408 72.1292 78.1384 70.5167C78.3033 70.3504 78.4818 70.2029 78.6708 70.0792C78.4818 69.9542 78.3033 69.8092 78.1384 69.6417C76.5408 68.0279 76.7369 65.0079 76.7453 64.9179V57.8029C76.7453 56.3354 76.3458 55.2292 75.5576 54.5154C74.5136 53.5704 73.1009 53.6154 73.0801 53.6167C72.7546 53.6367 72.4793 53.3967 72.4621 53.0892C72.4463 52.7804 72.6961 52.5192 73.0216 52.5029C73.1033 52.5029 74.942 52.4242 76.3606 53.6979C77.3999 54.6304 77.9258 56.0117 77.9258 57.8029L77.9245 64.9554C77.8714 65.6904 77.9624 67.8292 79.0005 68.8792C79.4294 69.3117 79.9713 69.5217 80.6596 69.5217Z" fill="#3980FF"/>
<path d="M75.9083 18.2519C75.9571 18.5516 76.2139 18.7764 76.5176 18.7764H82.9772C86.8417 18.7764 89.9746 21.9092 89.9746 25.7744V91.7531C89.9746 95.6181 86.8417 98.7506 82.9772 98.7506H16.9978C13.1332 98.7506 10.0004 95.6181 10.0004 91.7531V25.7744C10.0004 21.9092 13.1332 18.7764 16.9978 18.7764H23.4832C23.7868 18.7764 24.0437 18.5516 24.0924 18.2519C24.1539 17.8739 23.8659 17.5264 23.4831 17.5264H16.9978C12.4429 17.5264 8.75037 21.2189 8.75037 25.7744V91.7531C8.75037 96.3081 12.4429 100.001 16.9978 100.001H82.9772C87.5321 100.001 91.2246 96.3081 91.2246 91.7531V25.7744C91.2246 21.2189 87.5321 17.5264 82.9772 17.5264H76.5177C76.1348 17.5264 75.8468 17.8739 75.9083 18.2519Z" fill="#14161D"/>
<path d="M50.3196 44.6393C62.6464 44.6393 72.6392 34.6464 72.6392 22.3196C72.6392 9.99284 62.6464 0 50.3196 0C37.9928 0 28 9.99284 28 22.3196C28 34.6464 37.9928 44.6393 50.3196 44.6393Z" fill="#FEF4FF"/>
<path d="M45.2 18.7998V18.2998C44.9238 18.2998 44.7 18.5237 44.7 18.7998H45.2ZM45.2 20.3998L45.5535 20.7534L45.7 20.6069V20.3998H45.2ZM42.4686 20.8684L42.1151 21.222H42.1151L42.4686 20.8684ZM48.4 30.7998H48.9V30.5927L48.7535 30.4463L48.4 30.7998ZM46.8 29.1998H46.3V29.4069L46.4464 29.5534L46.8 29.1998ZM46.8 26.7998H47.3V26.5927L47.1535 26.4463L46.8 26.7998ZM45.2 25.1998H44.7V25.4069L44.8464 25.5534L45.2 25.1998ZM45.2 23.5998V23.0998C44.9238 23.0998 44.7 23.3237 44.7 23.5998H45.2ZM52.7 10.7998V13.9998H53.7V10.7998H52.7ZM51.6 15.0998H50V16.0998H51.6V15.0998ZM46.8 18.2998H45.2V19.2998H46.8V18.2998ZM44.7 18.7998V20.3998H45.7V18.7998H44.7ZM44.8464 20.0463L44.3778 20.5149L45.0849 21.222L45.5535 20.7534L44.8464 20.0463ZM42.8222 20.5149L39.9535 17.6463L39.2464 18.3534L42.1151 21.222L42.8222 20.5149ZM47.9 17.1998C47.9 17.8073 47.4075 18.2998 46.8 18.2998V19.2998C47.9598 19.2998 48.9 18.3596 48.9 17.1998H47.9ZM50 15.0998C48.8402 15.0998 47.9 16.04 47.9 17.1998H48.9C48.9 16.5923 49.3925 16.0998 50 16.0998V15.0998ZM44.3778 20.5149C43.9482 20.9445 43.2517 20.9445 42.8222 20.5149L42.1151 21.222C42.9352 22.0421 44.2648 22.0421 45.0849 21.222L44.3778 20.5149ZM52.7 13.9998C52.7 14.6073 52.2075 15.0998 51.6 15.0998V16.0998C52.7598 16.0998 53.7 15.1596 53.7 13.9998H52.7ZM48.9 33.1998V30.7998H47.9V33.1998H48.9ZM48.7535 30.4463L47.1535 28.8463L46.4464 29.5534L48.0464 31.1534L48.7535 30.4463ZM47.3 29.1998V26.7998H46.3V29.1998H47.3ZM47.1535 26.4463L45.5535 24.8463L44.8464 25.5534L46.4464 27.1534L47.1535 26.4463ZM45.7 25.1998V23.5998H44.7V25.1998H45.7ZM45.2 24.0998H51.6V23.0998H45.2V24.0998ZM52.7 25.1998V26.2665H53.7V25.1998H52.7ZM55.3333 28.8998H59.6V27.8998H55.3333V28.8998ZM54.3 27.8665C54.3 28.4372 54.7626 28.8998 55.3333 28.8998V27.8998C55.3149 27.8998 55.3 27.8849 55.3 27.8665H54.3ZM53.7333 27.2998C54.0463 27.2998 54.3 27.5535 54.3 27.8665H55.3C55.3 27.0012 54.5986 26.2998 53.7333 26.2998V27.2998ZM52.7 26.2665C52.7 26.8372 53.1626 27.2998 53.7333 27.2998V26.2998C53.7149 26.2998 53.7 26.2849 53.7 26.2665H52.7ZM51.6 24.0998C52.2075 24.0998 52.7 24.5923 52.7 25.1998H53.7C53.7 24.04 52.7598 23.0998 51.6 23.0998V24.0998ZM50 32.6998C44.0905 32.6998 39.3 27.9093 39.3 21.9998H38.3C38.3 28.4615 43.5383 33.6998 50 33.6998V32.6998ZM60.7 21.9998C60.7 27.9093 55.9094 32.6998 50 32.6998V33.6998C56.4617 33.6998 61.7 28.4615 61.7 21.9998H60.7ZM50 11.2998C55.9094 11.2998 60.7 16.0904 60.7 21.9998H61.7C61.7 15.5381 56.4617 10.2998 50 10.2998V11.2998ZM50 10.2998C43.5383 10.2998 38.3 15.5381 38.3 21.9998H39.3C39.3 16.0904 44.0905 11.2998 50 11.2998V10.2998Z" fill="black"/>
</g>
</svg>
